<svg xmlns="http://www.w3.org/2000/svg" width="17" height="17" viewBox="0 0 17 17" fill="none">
  <path d="M 8.5 17 C 13.194 17 17 13.194 17 8.5 C 17 3.806 13.194 0 8.5 0 C 3.806 0 0 3.806 0 8.5 C 0 13.194 3.806 17 8.5 17 Z M 12.266 4.734 C 12.578 5.047 12.578 5.553 12.266 5.866 L 9.631 8.5 L 12.266 11.134 C 12.578 11.447 12.578 11.953 12.266 12.266 C 11.953 12.578 11.447 12.578 11.134 12.266 L 8.5 9.631 L 5.866 12.266 C 5.553 12.578 5.047 12.578 4.734 12.266 C 4.422 11.953 4.422 11.447 4.734 11.134 L 7.369 8.5 L 4.734 5.866 C 4.422 5.553 4.422 5.047 4.734 4.734 C 5.047 4.422 5.553 4.422 5.866 4.734 L 8.5 7.369 L 11.134 4.734 C 11.447 4.422 11.953 4.422 12.266 4.734 Z" fill="currentColor" fill-rule="evenodd"></path>
</svg>