<svg xmlns="http://www.w3.org/2000/svg" width="15.630" height="15.780" viewBox="0 0 15.630 15.780" fill="none">
  <path d="M 6.383 12.767 C 7.77 12.767 9.048 12.318 10.094 11.571 L 14.028 15.506 C 14.211 15.688 14.452 15.78 14.709 15.78 C 15.249 15.78 15.63 15.365 15.63 14.833 C 15.63 14.584 15.547 14.344 15.365 14.169 L 11.455 10.251 C 12.277 9.172 12.767 7.836 12.767 6.383 C 12.767 2.872 9.895 0 6.383 0 C 2.88 0 0 2.864 0 6.383 C 0 9.895 2.872 12.767 6.383 12.767 Z M 6.383 11.389 C 3.644 11.389 1.378 9.123 1.378 6.383 C 1.378 3.644 3.644 1.378 6.383 1.378 C 9.123 1.378 11.389 3.644 11.389 6.383 C 11.389 9.123 9.123 11.389 6.383 11.389 Z" fill="currentColor" fill-rule="nonzero"></path>
</svg>