<svg xmlns="http://www.w3.org/2000/svg" width="11.878" height="17.681" viewBox="0 0 11.878 17.681" fill="none">
  <path d="M 5.943 11.563 C 7.595 11.563 8.708 10.326 8.708 8.558 L 8.708 3.005 C 8.708 1.229 7.595 0 5.943 0 C 4.283 0 3.171 1.229 3.171 3.005 L 3.171 8.558 C 3.171 10.326 4.283 11.563 5.943 11.563 Z M 0 8.691 C 0 11.945 2.15 14.228 5.313 14.493 L 5.313 16.427 L 2.233 16.427 C 1.884 16.427 1.602 16.709 1.602 17.058 C 1.602 17.407 1.884 17.681 2.233 17.681 L 9.646 17.681 C 9.994 17.681 10.276 17.407 10.276 17.058 C 10.276 16.709 9.994 16.427 9.646 16.427 L 6.566 16.427 L 6.566 14.493 C 9.737 14.228 11.878 11.945 11.878 8.691 L 11.878 7.006 C 11.878 6.657 11.604 6.383 11.256 6.383 C 10.907 6.383 10.625 6.657 10.625 7.006 L 10.625 8.641 C 10.625 11.472 8.782 13.348 5.943 13.348 C 3.096 13.348 1.253 11.472 1.253 8.641 L 1.253 7.006 C 1.253 6.657 0.979 6.383 0.623 6.383 C 0.274 6.383 0 6.657 0 7.006 L 0 8.691 Z" fill="currentColor" fill-rule="nonzero"></path>
</svg>