<svg xmlns="http://www.w3.org/2000/svg" width="17" height="10.667" viewBox="0 0 17 10.667" fill="none">
  <path d="M 16 0 L 15 0 C 14.448 0 14 0.448 14 1 L 14 9.667 C 14 10.219 14.448 10.667 15 10.667 L 16 10.667 C 16.552 10.667 17 10.219 17 9.667 L 17 1 C 17 0.448 16.552 0 16 0 Z M 10.333 2.333 L 11.333 2.333 C 11.886 2.333 12.333 2.781 12.333 3.333 L 12.333 9.667 C 12.333 10.219 11.886 10.667 11.333 10.667 L 10.333 10.667 C 9.781 10.667 9.333 10.219 9.333 9.667 L 9.333 3.333 C 9.333 2.781 9.781 2.333 10.333 2.333 Z M 6.667 4.667 L 5.667 4.667 C 5.114 4.667 4.667 5.114 4.667 5.667 L 4.667 9.667 C 4.667 10.219 5.114 10.667 5.667 10.667 L 6.667 10.667 C 7.219 10.667 7.667 10.219 7.667 9.667 L 7.667 5.667 C 7.667 5.114 7.219 4.667 6.667 4.667 Z M 2 6.667 L 1 6.667 C 0.448 6.667 0 7.114 0 7.667 L 0 9.667 C 0 10.219 0.448 10.667 1 10.667 L 2 10.667 C 2.552 10.667 3 10.219 3 9.667 L 3 7.667 C 3 7.114 2.552 6.667 2 6.667 Z" fill="currentColor" fill-rule="evenodd"></path>
</svg>