<svg xmlns="http://www.w3.org/2000/svg" width="25.088" height="22.812" viewBox="0 0 25.088 22.812" fill="none">
  <path d="M 0.631 15.379 C 1.357 16.082 2.752 16.246 3.83 15.262 C 4.217 14.922 4.979 14.114 6.174 12.907 C 12.033 6.977 15.643 3.239 16.287 3.824 C 16.803 4.293 14.811 7.117 12.818 9.883 C 9.174 14.934 6.104 18.625 8.412 20.934 C 10.217 22.739 12.959 21.098 17.354 17.242 C 19.709 15.168 21.35 13.633 21.76 14.032 C 22.018 14.289 21.397 15.309 20.6 16.68 C 19.475 18.625 17.975 20.828 19.439 22.293 C 20.459 23.313 22.404 22.867 24.666 20.629 C 25.135 20.172 25.24 19.621 24.842 19.235 C 24.479 18.871 23.963 18.93 23.576 19.282 C 22.111 20.688 21.022 21.297 20.846 21.098 C 20.623 20.887 21.244 19.774 22.322 17.852 C 23.811 15.192 24.725 13.41 23.354 12.074 C 21.514 10.293 19.357 12.18 15.619 15.473 C 12.443 18.262 11.143 18.989 10.85 18.672 C 10.428 18.227 11.6 16.645 15.068 11.793 C 18.818 6.567 21.045 3.168 18.936 1.106 C 16.182 -1.578 12.479 0.403 3.303 9.485 C 1.967 10.797 1.135 11.594 0.725 12.086 C -0.342 13.317 -0.107 14.676 0.631 15.379 Z" fill="currentColor" fill-rule="nonzero"></path>
</svg>