<svg xmlns="http://www.w3.org/2000/svg" width="15.272" height="10.966" viewBox="0 0 15.272 10.966" fill="none">
  <path d="M 7.637 2.277 C 9.852 2.277 11.984 3.129 13.59 4.656 C 13.711 4.774 13.904 4.772 14.023 4.652 L 15.179 3.486 C 15.239 3.425 15.273 3.343 15.272 3.257 C 15.272 3.172 15.237 3.09 15.176 3.03 C 10.961 -1.01 4.311 -1.01 0.096 3.03 C 0.035 3.09 0.001 3.171 0 3.257 C -0.001 3.343 0.033 3.425 0.093 3.486 L 1.25 4.652 C 1.369 4.772 1.562 4.774 1.683 4.656 C 3.289 3.129 5.42 2.277 7.637 2.277 Z M 7.637 6.073 C 8.854 6.073 10.028 6.525 10.931 7.343 C 11.053 7.459 11.245 7.456 11.364 7.337 L 12.519 6.17 C 12.579 6.109 12.613 6.026 12.612 5.94 C 12.611 5.854 12.576 5.771 12.514 5.711 C 9.766 3.155 5.51 3.155 2.762 5.711 C 2.7 5.771 2.664 5.854 2.663 5.94 C 2.662 6.026 2.696 6.109 2.757 6.17 L 3.912 7.337 C 4.031 7.456 4.223 7.459 4.345 7.343 C 5.247 6.526 6.42 6.073 7.637 6.073 Z M 9.95 8.627 C 9.951 8.713 9.917 8.797 9.856 8.857 L 7.858 10.873 C 7.8 10.932 7.72 10.966 7.637 10.966 C 7.553 10.966 7.473 10.932 7.415 10.873 L 5.417 8.857 C 5.356 8.797 5.322 8.713 5.323 8.627 C 5.325 8.54 5.363 8.458 5.427 8.4 C 6.703 7.321 8.571 7.321 9.846 8.4 C 9.91 8.458 9.948 8.54 9.95 8.627 Z" fill="currentColor" fill-rule="evenodd"></path>
</svg>